<svg xmlns="http://www.w3.org/2000/svg" width="202" height="60" viewBox="0 0 202 60"><defs><linearGradient id="a" x1="82" x2="121" y1="-13" y2="73" gradientUnits="userSpaceOnUse"><stop stop-color="#fade8d" offset="0"/><stop stop-color="#fade8d" offset=".1"/><stop stop-color="#fade8d" offset=".2"/><stop stop-color="#ebcb72" offset=".3"/><stop stop-color="#d4ae48" offset=".4"/><stop stop-color="#cda43b" offset=".5"/><stop stop-color="#f9dc8b" stop-opacity=".94" offset=".5"/><stop stop-color="#f3d684" offset=".6"/><stop stop-color="#e8c872" offset=".7"/><stop stop-color="#e0bf67" offset=".8"/><stop stop-color="#e0bf67" offset=".9"/><stop stop-color="#e0bf67" offset="1"/></linearGradient></defs><path d="M59.3 49.32V30.97h19.26v3.29h-14.8v4.78h7.97v3.38h-7.97v6.9zM19.4 13.11h-6.41v6.48L10.6 22l-7.91 8 7.91 7.99 2.39 2.41v6.48h6.41l2.39 2.41 7.91 7.99 7.91-7.99L40 46.88h6.42V40.4l2.38-2.41L56.71 30l-7.91-7.99-2.38-2.41v-6.48H40l-2.39-2.41-7.91-8-10.3 10.4zm10.3.01c.21 0 .42.01.62.01-.16-.01-.38-.01-.61-.01-.24 0-.46.01-.62.01.2 0 .4-.01.61-.01zm1.76.1c.41.04.81.1 1.21.17-.13-.02-.28-.05-.46-.08a18.3 18.3 0 0 0-.75-.09zm4.86 1.29c.58.25 1.14.54 1.68.85.07.04-.09-.05-.44-.24-.44-.23-.99-.49-1.18-.58-.07-.04-.09-.04-.06-.03zm3.32 1.93l.02.01.01.01h.01l.04.03h.01v.01h.01l.01.01.01.01c.29.22.58.46.86.7l.01.01h.01v.01c.05.05.1.09.15.14.18.17.14.13-.15-.12-.35-.29-.89-.72-1.15-.93-.26-.19-.19-.15.14.09l.01.02zm1.53 1.3zm1.02 1.07c.04.05.08.09.12.14v.02h.01c.24.28.48.57.7.87l.01.01h.01l.05.07.01.01.02.02.01.02c.23.33.28.4.1.15-.21-.28-.64-.82-.92-1.17-.25-.3-.28-.34-.13-.16l.01.02zm2 2.8a16.937 16.937 0 0 1 .82 1.66c-.1-.21-.36-.76-.58-1.21-.19-.36-.28-.5-.24-.45zm1.94 5.4c.07.4.13.81.17 1.22-.02-.2-.05-.47-.1-.75-.02-.17-.05-.34-.07-.47zm.26 2.41c0 .16.01.36.01.58 0 .22 0 .42-.01.58 0-.19.01-.38.01-.58 0-.2-.01-.39-.01-.58zm-.08 2.35c-.04.41-.1.82-.17 1.22.02-.13.05-.3.08-.47.03-.28.06-.55.09-.75zm-1.27 4.91c-.25.59-.53 1.15-.84 1.7-.04.06.05-.09.24-.44.22-.45.48-1 .58-1.21.03-.08.03-.1.02-.05zm-2.02 3.5c-.22.29-.44.57-.68.85l-.01.01v.01l-.01.01-.01.01c-.04.05-.08.09-.12.14l-.01.01c-.16.18-.13.13.13-.16.28-.35.71-.89.92-1.17.19-.26.14-.18-.12.18l-.07.1-.02.01zm-2.23 2.44c-.05.04-.1.08-.14.12l-.03.03h-.01l-.01.01c-.26.23-.54.45-.81.66l-.03.02v.01h-.03l-.07.05c-.36.25-.44.31-.17.11.27-.21.8-.64 1.15-.93.29-.22.33-.26.15-.08zm-2.78 2.02c-.54.31-1.1.6-1.68.85-.03.01-.02.01.06-.03.2-.09.74-.36 1.18-.59.35-.18.51-.27.44-.23zm-5.34 1.97c-.4.07-.8.13-1.21.17l.75-.1c.18-.02.33-.05.46-.07zm-2.37.25c-.2.01-.4.01-.6.01-.25 0-.49-.01-.73-.02l.74.02c.22 0 .43 0 .59-.01zm-2.35-.08c-.4-.04-.8-.1-1.19-.17l.46.07c.26.04.52.08.73.1zm-4.87-1.28c-.57-.25-1.13-.54-1.67-.85l.43.23c.45.23.99.49 1.2.59.07.04.09.05.04.03zm-3.31-1.93l-.03-.02-.06-.04h-.02c-.3-.23-.59-.46-.87-.72h-.01c-.05-.04-.09-.08-.14-.12l-.01-.01c-.18-.17-.13-.13.15.12.35.29.89.72 1.16.94.26.19.18.14-.15-.1l-.02-.05zm-1.54-1.31c-.23-.21-.45-.44-.66-.67.2.22.45.47.66.67zm-1.02-1.06c-.04-.05-.09-.1-.13-.14l-.01-.01h-.01v-.02h-.01c-.24-.29-.48-.57-.7-.87v-.01h-.01v-.02l-.04-.05c-.26-.35-.32-.46-.12-.18.21.28.63.81.91 1.16.26.29.3.34.12.14zm-2-2.81c-.31-.55-.59-1.12-.84-1.7l.03.06c.09.2.36.76.59 1.21.17.35.26.51.22.43zM13.26 33c-.07-.4-.13-.8-.17-1.2.02.18.05.45.09.74.03.17.06.32.08.46zm-.25-2.36C13 30.43 13 30.21 13 30c0-.21.01-.43.01-.64-.01.17-.01.39-.01.63 0 .26 0 .48.01.65zm.08-2.43c.04-.41.1-.81.17-1.21-.02.13-.05.28-.08.47-.03.28-.07.55-.09.74zm1.27-4.9c.25-.59.53-1.15.84-1.7.04-.08-.04.09-.23.43-.23.45-.5 1.01-.59 1.21-.02.08-.03.09-.02.06zm1.93-3.37l.02-.03.03-.03v-.01c.05-.07.11-.15.17-.22l.61-.75.1-.12.01-.01c.16-.17.11-.12-.14.17-.28.35-.7.88-.91 1.16-.19.26-.13.18.1-.15l.01-.01zm1.29-1.55c.2-.22.42-.43.64-.64-.2.19-.44.43-.64.64zm1.04-1.01c.15-.13.3-.27.46-.4l.66-.52.06-.05.01-.01c.3-.22.37-.26.12-.07-.28.22-.82.65-1.16.93-.28.24-.33.29-.16.13l.01-.01zm2.79-2.03c.54-.31 1.1-.59 1.67-.84.04-.02.03-.01-.05.02-.21.1-.75.36-1.2.59-.33.18-.49.27-.42.23zm5.34-1.96c.39-.07.79-.13 1.19-.17-.2.02-.46.06-.73.09-.18.03-.34.06-.46.08zm-2.04.5c.5-.15.81-.23.66-.18-.14.05-.71.23-1.27.41-.51.19-.75.28-.57.2.19-.08.7-.27 1.18-.43zm2.41-.56c.54-.07.94-.12.9-.1-.07.02-.62.11-1.24.2-.59.11-.95.18-.82.13.11-.03.63-.14 1.16-.23zm2.59-.2c.55.01 1.03.04 1.07.05.03.02-.43.01-1.07.01-.63.01-1.12.01-1.09-.01.05-.02.53-.04 1.09-.05zm2.58.2c.52.09 1.05.2 1.18.24.13.04-.23-.02-.84-.14-.61-.09-1.17-.18-1.21-.2-.08-.02.32.02.87.1zm2.4.57c.47.16.99.35 1.18.42.2.09-.05 0-.57-.2-.54-.18-1.11-.36-1.27-.41-.12-.04.18.04.66.19zm-13.1 1.36c.44-.23.65-.32.4-.17-.25.17-.88.55-1.35.82-.45.29-.56.33-.3.13.28-.19.82-.53 1.25-.78zm2.31-1.04c.55-.19.88-.26.7-.16-.17.12-.85.42-1.46.63-.6.24-.85.3-.61.14.23-.14.84-.41 1.37-.61zm2.77-.74c.64-.1 1.09-.11 1.03-.04-.09.1-.74.28-1.47.4-.69.14-1.11.16-.96.04.17-.1.78-.28 1.4-.4zm3.04-.26c.65.01 1.23.09 1.27.16.04.1-.52.16-1.27.15-.75.01-1.33-.05-1.27-.15.04-.08.61-.15 1.27-.16zm3.03.27c.62.12 1.24.3 1.39.39.17.12-.25.11-.96-.04-.71-.11-1.38-.29-1.45-.39-.08-.08.39-.06 1.02.04zm2.76.73c.54.21 1.14.48 1.37.62.24.16-.02.1-.6-.13-.62-.22-1.29-.51-1.47-.64-.18-.11.15-.04.7.15zm2.33 1.05c.44.25.97.59 1.23.77.27.2.15.16-.3-.13-.48-.28-1.09-.65-1.35-.83-.24-.14-.04-.05.42.19zm-19.37 2.27c.36-.3.41-.31.11 0-.3.34-.85.89-1.19 1.2-.31.31-.3.25-.01-.1.3-.33.77-.8 1.09-1.1zm1.88-1.38c.49-.29.67-.31.39-.03-.28.32-.97.85-1.47 1.15-.47.31-.57.27-.27-.06.31-.31.89-.77 1.35-1.06zm2.56-1.26c.64-.23 1-.22.79.03-.21.29-.98.75-1.68 1-.66.26-.94.21-.66-.11.25-.27.93-.67 1.55-.92zm3.21-.89c.74-.12 1.29-.04 1.19.19-.08.28-.86.64-1.71.77-.83.16-1.32.03-1.13-.26.19-.24.91-.55 1.65-.7zm3.6-.32c.78.01 1.45.21 1.51.44.05.28-.62.52-1.51.5-.9.02-1.58-.21-1.53-.5.06-.23.74-.43 1.53-.44zm3.6.33c.73.15 1.46.46 1.62.7.2.3-.29.42-1.12.26-.86-.13-1.64-.49-1.72-.77-.08-.24.47-.32 1.22-.19zm3.21.89c.6.24 1.27.65 1.55.93.27.31-.01.37-.67.11-.69-.24-1.46-.71-1.68-1.01-.2-.25.17-.26.8-.03zm2.55 1.26c.45.29 1.04.75 1.33 1.05.31.33.2.37-.25.07-.51-.3-1.19-.84-1.47-1.15-.29-.29-.09-.26.39.03zm1.87 1.38c.32.29.79.77 1.08 1.1.29.35.31.42.01.11-.35-.32-.88-.86-1.2-1.21-.29-.3-.24-.29.11 0zm-25.05 2.99c.21-.29.15-.16-.13.3-.27.48-.64 1.1-.81 1.35-.15.24-.07.06.17-.41.25-.43.58-.98.77-1.24zm1.16-1.36c.34-.32.38-.22.07.26-.31.51-.83 1.2-1.14 1.49-.28.29-.25.09.03-.4.29-.46.75-1.05 1.04-1.35zm1.88-1.47c.52-.3.73-.19.43.3-.29.55-.99 1.25-1.52 1.54-.49.3-.6.08-.3-.44.31-.48.92-1.09 1.39-1.4zm2.8-1.35c.72-.25 1.16-.07.94.43-.21.56-1.06 1.25-1.84 1.48-.74.26-1.08-.02-.8-.56.28-.5 1.03-1.09 1.7-1.35zm3.71-.97c.87-.13 1.53.15 1.44.65-.09.58-.99 1.18-1.97 1.31-.95.15-1.54-.21-1.35-.78.19-.5 1.03-1.02 1.88-1.18zm4.27-.35c.93.02 1.72.42 1.79.93.04.58-.75 1.06-1.79 1.05-1.06.02-1.85-.47-1.79-1.05.06-.51.86-.91 1.79-.93zm4.26.36c.85.16 1.68.67 1.88 1.18.18.56-.41.93-1.36.77-.98-.13-1.86-.73-1.95-1.3-.1-.5.56-.79 1.43-.65zm3.7.97c.69.27 1.42.85 1.71 1.35.27.55-.07.81-.8.56-.79-.24-1.63-.92-1.85-1.49-.21-.49.22-.68.94-.42zm2.8 1.35c.47.31 1.07.92 1.38 1.39.31.53.2.75-.29.45-.54-.29-1.24-1-1.53-1.55-.28-.47-.07-.6.44-.29zm1.88 1.47c.31.31.75.89 1.05 1.36.28.48.31.68.03.4-.32-.3-.84-.98-1.14-1.49-.31-.48-.27-.58.06-.27zm1.16 1.36c.18.26.53.82.77 1.25.24.46.32.67.17.42-.16-.25-.54-.88-.81-1.37-.28-.46-.33-.57-.13-.3zm-29.33 3.21c.08-.2-.01.05-.19.57-.18.54-.36 1.12-.41 1.27-.04.15.04-.16.18-.65.16-.49.35-1.01.42-1.19zm.51-1c.16-.24.1.01-.13.6-.22.63-.5 1.3-.63 1.49-.1.18-.03-.15.15-.71.21-.55.47-1.15.61-1.38zm.99-1.22c.31-.27.37.01.11.68-.24.7-.7 1.48-1 1.7-.24.2-.25-.17-.02-.81.23-.61.64-1.29.91-1.57zm1.86-1.33c.54-.28.8.07.56.81-.23.79-.91 1.65-1.47 1.87-.5.22-.67-.22-.43-.95.27-.69.85-1.44 1.34-1.73zm3.03-1.22c.81-.23 1.34.2 1.15 1.01-.18.87-1.05 1.75-1.91 1.93-.8.19-1.23-.35-1-1.17.24-.75 1.01-1.53 1.76-1.77zm4.2-.89c1.01-.12 1.78.43 1.7 1.28-.07.91-1.05 1.77-2.15 1.86-1.06.12-1.77-.54-1.61-1.42.18-.82 1.08-1.57 2.06-1.72zm4.94-.32c1.08.01 1.98.68 2.03 1.53.05.92-.86 1.69-2.04 1.67-1.18.01-2.09-.76-2.04-1.67.05-.85.97-1.52 2.05-1.53zm4.93.33c.97.14 1.87.89 2.04 1.72.15.88-.56 1.53-1.62 1.42-1.1-.1-2.06-.95-2.14-1.86-.07-.85.7-1.41 1.72-1.28zm4.19.88c.76.25 1.53 1.03 1.77 1.79.22.82-.21 1.34-1 1.16-.86-.18-1.74-1.07-1.91-1.93-.19-.81.33-1.25 1.14-1.02zm3.04 1.25c.49.28 1.07 1.04 1.33 1.72.25.73.07 1.17-.42.95-.56-.21-1.23-1.07-1.47-1.87-.25-.75.01-1.09.56-.8zm1.86 1.32c.27.26.66.95.91 1.57.23.65.22 1.02-.03.8-.29-.21-.76-1-.99-1.7-.27-.67-.21-.96.11-.67zm.98 1.21c.14.23.41.85.61 1.38.18.56.26.89.15.71-.13-.18-.41-.86-.63-1.49-.23-.59-.29-.85-.13-.6zm.51 1c.07.19.26.71.42 1.19.15.5.22.79.18.67-.05-.14-.23-.74-.41-1.28-.19-.52-.28-.78-.19-.58zm-31.78 2.42c.04-.13-.02.24-.13.85-.09.61-.18 1.16-.2 1.23-.02.06.03-.35.1-.89.09-.55.19-1.06.23-1.19zm.3-.66c.12-.17.11.25-.04.96-.12.72-.29 1.39-.39 1.47-.08.07-.06-.4.04-1.03.13-.62.3-1.25.39-1.4zm.84-.82c.29-.2.42.29.26 1.13-.13.86-.48 1.64-.76 1.74-.23.08-.31-.46-.19-1.22.14-.75.45-1.48.69-1.65zm1.83-.92c.56-.18.92.41.77 1.37-.13.99-.72 1.88-1.29 1.98-.5.09-.78-.56-.64-1.46.16-.86.66-1.69 1.16-1.89zm3.22-.85c.87-.16 1.52.55 1.41 1.63-.1 1.11-.94 2.09-1.85 2.17-.83.08-1.38-.69-1.26-1.73.14-.99.88-1.9 1.7-2.07zm4.6-.62c1.11-.08 2 .75 1.96 1.89-.04 1.18-1.04 2.19-2.21 2.23-1.13.05-1.95-.84-1.86-1.98.09-1.09 1.03-2.03 2.11-2.14zm5.47-.22c1.2.01 2.19.92 2.22 2.07.03 1.19-.97 2.17-2.23 2.16-1.25.01-2.25-.98-2.23-2.17.05-1.13 1.04-2.05 2.24-2.06zm5.48.23c1.08.1 2.01 1.05 2.11 2.14.08 1.12-.74 2.02-1.87 1.97-1.17-.04-2.17-1.06-2.21-2.24-.04-1.13.85-1.95 1.97-1.87zm4.59.62c.81.17 1.55 1.09 1.7 2.08.12 1.02-.43 1.8-1.27 1.72-.9-.07-1.75-1.06-1.84-2.17-.11-1.07.54-1.78 1.41-1.63zm3.22.86c.5.19 1 1.02 1.16 1.88.13.89-.14 1.56-.64 1.47-.57-.09-1.17-1-1.29-1.99-.16-.96.21-1.56.77-1.36zm1.83.9c.24.19.55.92.69 1.64.12.76.04 1.32-.19 1.22-.28-.08-.63-.87-.76-1.72-.15-.83-.03-1.32.26-1.14zm.83.83c.1.16.27.78.39 1.41.1.63.12 1.1.04 1.03-.1-.07-.27-.73-.39-1.47-.14-.72-.15-1.13-.04-.97zm.31.67c.03.13.15.66.24 1.19.08.55.11.95.1.91-.02-.06-.11-.63-.2-1.25-.12-.6-.19-.99-.14-.85zm-32.91 2.7c.02-.05.02.44 0 1.08.01.66.02 1.15 0 1.1-.01-.03-.04-.52-.05-1.1.01-.56.04-1.05.05-1.08zm.2-.2c.1-.04.16.52.15 1.28.02.78-.05 1.34-.15 1.3-.07-.04-.14-.63-.16-1.3.02-.65.08-1.24.16-1.28zm.75-.25c.28-.07.51.62.49 1.53.02.92-.21 1.61-.49 1.54-.23-.06-.42-.74-.44-1.54.01-.78.2-1.47.44-1.53zm1.81-.27c.58-.06 1.05.75 1.04 1.8.01 1.07-.46 1.88-1.04 1.82-.5-.07-.9-.86-.91-1.82.01-.94.41-1.74.91-1.8zm3.31-.26c.91-.04 1.67.88 1.66 2.07.01 1.19-.75 2.12-1.66 2.08-.84-.05-1.5-.98-1.52-2.08.02-1.1.69-2.02 1.52-2.07zm4.81-.18c1.18-.03 2.15.98 2.14 2.25.01 1.27-.97 2.28-2.14 2.25-1.13-.03-2.04-1.04-2.04-2.25.01-1.22.91-2.22 2.04-2.25zm5.77-.07c1.27.01 2.29 1.04 2.3 2.32a2.324 2.324 0 0 1-2.3 2.32c-1.27 0-2.29-1.04-2.3-2.32.01-1.28 1.03-2.32 2.3-2.32zm5.77.07c1.13.03 2.04 1.04 2.04 2.25-.01 1.21-.91 2.22-2.04 2.25-1.18.03-2.15-.98-2.15-2.25s.97-2.27 2.15-2.25zm4.81.19c.84.05 1.5.97 1.51 2.06-.01 1.09-.67 2-1.51 2.06-.91.05-1.67-.87-1.66-2.06-.01-1.19.75-2.1 1.66-2.06zm3.31.27c.5.05.9.86.91 1.79-.01.93-.41 1.74-.91 1.79-.57.06-1.06-.74-1.04-1.79-.02-1.05.46-1.86 1.04-1.79zm1.81.26c.23.06.42.75.43 1.53-.01.78-.2 1.47-.43 1.53-.28.05-.51-.64-.49-1.53-.02-.89.21-1.58.49-1.53zm.75.24c.07.06.14.63.16 1.29-.02.65-.08 1.22-.16 1.28-.1.04-.16-.53-.15-1.28-.02-.76.05-1.33.15-1.29zm.2.21c.01.03.04.52.05 1.08-.01.56-.04 1.05-.05 1.08-.02.03-.02-.45 0-1.08-.02-.62-.02-1.11 0-1.08zM13.1 31.73c.02.06.11.61.2 1.23.11.61.18.98.13.85-.03-.13-.14-.64-.23-1.19-.07-.54-.11-.96-.1-.89zm.21.31c.1.07.28.75.39 1.46.14.72.16 1.14.04.97-.09-.15-.27-.78-.39-1.41-.09-.62-.11-1.1-.04-1.02zm.76.39c.28.1.63.88.76 1.74.16.83.03 1.33-.26 1.13-.24-.17-.55-.9-.7-1.64-.11-.77-.03-1.31.2-1.23zm1.82.44c.57.09 1.17.98 1.29 1.97.15.96-.21 1.56-.77 1.37-.5-.2-1.01-1.03-1.17-1.89-.12-.89.15-1.55.65-1.45zm3.3.4c.91.07 1.75 1.05 1.85 2.16.12 1.07-.53 1.79-1.41 1.63-.82-.17-1.56-1.08-1.7-2.06-.12-1.04.43-1.81 1.26-1.73zm4.78.29c1.17.04 2.17 1.05 2.21 2.23.05 1.14-.84 1.97-1.96 1.88-1.08-.1-2.02-1.05-2.12-2.14-.07-1.13.74-2.03 1.87-1.97zm5.73.1c1.26 0 2.25.98 2.23 2.16-.03 1.14-1.03 2.06-2.22 2.07-1.2-.01-2.19-.92-2.23-2.07-.03-1.18.97-2.16 2.22-2.16zm5.73-.11c1.13-.05 1.95.85 1.87 1.98-.1 1.09-1.03 2.04-2.11 2.14-1.13.09-2.01-.74-1.97-1.88.04-1.18 1.04-2.2 2.21-2.24zm4.78-.3c.83-.08 1.38.71 1.27 1.73-.15.99-.89 1.91-1.7 2.08-.87.15-1.52-.56-1.4-1.63.08-1.12.93-2.1 1.83-2.18zm3.3-.41c.5-.09.77.58.64 1.47-.16.87-.67 1.7-1.16 1.88-.56.2-.93-.4-.78-1.36.13-.99.72-1.89 1.3-1.99zm1.81-.42c.23-.1.31.46.19 1.22-.15.73-.45 1.46-.69 1.64-.29.19-.42-.31-.26-1.14.13-.85.48-1.64.76-1.72zm.76-.39c.08-.08.06.4-.04 1.03-.12.62-.29 1.24-.39 1.4-.12.16-.1-.25.04-.97.12-.73.29-1.39.39-1.46zm.21-.33c.01-.05-.02.35-.1.91-.09.53-.2 1.06-.24 1.19-.04.13.02-.25.14-.85.1-.62.18-1.18.2-1.25zm-32.71 2.7c.05.14.23.72.41 1.27.19.52.28.78.19.57-.07-.17-.26-.7-.42-1.19-.14-.49-.22-.8-.18-.65zm.35.75c.13.19.41.86.63 1.49.23.59.29.84.13.6-.13-.23-.4-.83-.61-1.38-.19-.56-.25-.89-.15-.71zm.86.93c.3.23.75 1 1 1.7.26.67.2.95-.11.68-.27-.28-.67-.97-.91-1.57-.23-.64-.23-1.01.02-.81zm1.84 1.02c.56.23 1.24 1.09 1.47 1.87.24.74-.02 1.08-.56.81-.49-.28-1.07-1.04-1.34-1.73-.24-.72-.07-1.17.43-.95zm3.18.97c.86.18 1.73 1.06 1.91 1.93.19.8-.35 1.24-1.15 1.01-.75-.24-1.52-1.02-1.76-1.78-.22-.81.2-1.35 1-1.16zm4.52.69c1.1.1 2.07.95 2.15 1.86.08.84-.69 1.4-1.7 1.28-.98-.15-1.89-.9-2.05-1.71-.16-.89.54-1.54 1.6-1.43zm5.37.25c1.17-.01 2.09.75 2.04 1.68-.05.85-.96 1.52-2.03 1.53-1.08-.02-2-.69-2.05-1.53-.05-.92.86-1.69 2.04-1.68zm5.37-.25c1.06-.12 1.77.54 1.62 1.42-.17.82-1.07 1.57-2.04 1.72-1.02.13-1.79-.43-1.71-1.27.07-.93 1.03-1.78 2.13-1.87zm4.53-.7c.79-.18 1.22.35 1 1.17-.24.76-1.01 1.54-1.77 1.78-.81.23-1.33-.21-1.14-1.02.17-.87 1.04-1.75 1.91-1.93zm3.17-.96c.5-.22.67.22.42.95-.26.68-.84 1.44-1.33 1.72-.55.29-.81-.06-.57-.8.25-.8.92-1.66 1.48-1.87zm1.84-1.03c.25-.21.26.16.03.8-.25.62-.65 1.31-.91 1.57-.32.28-.37 0-.11-.67.23-.7.7-1.49.99-1.7zm.86-.93c.1-.18.03.15-.15.71-.2.53-.47 1.15-.61 1.38-.16.24-.1-.01.13-.6.22-.63.51-1.3.63-1.49zm.35-.77c.04-.13-.03.17-.18.67-.16.48-.35 1-.42 1.19-.09.2 0-.05.19-.57.18-.55.36-1.15.41-1.29zm-30.87 3.44c.17.25.53.87.81 1.35.28.46.34.58.13.3-.18-.26-.52-.8-.77-1.25-.24-.46-.32-.65-.17-.4zm1.03 1.27c.31.28.84.97 1.14 1.49.31.47.27.58-.07.26-.3-.3-.75-.89-1.04-1.35-.28-.5-.31-.7-.03-.4zm1.87 1.37c.53.28 1.23.99 1.52 1.54.29.49.08.61-.43.3-.47-.31-1.08-.93-1.39-1.4-.3-.51-.19-.73.3-.44zm2.98 1.28c.78.23 1.63.92 1.84 1.48.22.5-.22.68-.94.43-.67-.26-1.42-.85-1.7-1.34-.27-.55.06-.82.8-.57zm4.08.92c.98.13 1.88.73 1.97 1.31.09.5-.57.78-1.44.65-.86-.16-1.69-.68-1.88-1.18-.19-.57.4-.94 1.35-.78zm4.8.33c1.04-.01 1.83.47 1.79 1.05-.07.51-.86.91-1.79.93-.93-.01-1.73-.41-1.79-.92-.06-.59.73-1.07 1.79-1.06zm4.78-.33c.95-.16 1.54.21 1.36.78-.2.51-1.02 1.02-1.88 1.18-.88.13-1.53-.15-1.44-.65.1-.59.98-1.19 1.96-1.31zm4.09-.93c.73-.25 1.07.02.8.56-.29.5-1.03 1.08-1.71 1.35-.72.25-1.16.07-.94-.43.22-.57 1.06-1.24 1.85-1.48zm2.98-1.29c.49-.3.6-.08.29.45-.31.48-.91 1.08-1.38 1.39-.52.31-.72.19-.44-.29.29-.54.99-1.25 1.53-1.55zm1.87-1.38c.27-.28.24-.08-.03.4-.3.47-.74 1.05-1.05 1.36-.33.31-.37.2-.06-.27.3-.51.82-1.19 1.14-1.49zm1.02-1.27c.15-.24.06-.04-.17.42-.24.43-.59.98-.77 1.24-.2.27-.16.16.13-.3.27-.47.65-1.1.81-1.36zm-27.07 3.48c.33.31.89.86 1.19 1.2.31.31.25.3-.11 0-.32-.29-.8-.77-1.09-1.1-.28-.35-.29-.41.01-.1zm1.88 1.46c.51.31 1.19.84 1.47 1.15.28.28.09.26-.39-.03-.46-.3-1.04-.75-1.35-1.06-.3-.33-.2-.37.27-.06zM22 44.06c.71.25 1.47.71 1.68 1.01.21.25-.15.26-.79.03-.61-.25-1.29-.65-1.55-.92-.28-.32 0-.38.66-.12zm3.6.96c.84.13 1.62.49 1.71.77.09.24-.46.32-1.19.2-.74-.15-1.46-.46-1.65-.71-.19-.29.3-.42 1.13-.26zm4.11.35c.9-.02 1.56.22 1.51.5-.06.24-.74.43-1.51.44-.79-.01-1.47-.2-1.53-.44-.05-.28.63-.52 1.53-.5zm4.11-.35c.82-.16 1.31-.04 1.11.26-.17.24-.89.55-1.63.7-.75.13-1.31.04-1.21-.19.1-.28.88-.64 1.73-.77zm3.58-.96c.66-.26.95-.21.67.1-.28.28-.96.68-1.55.92-.63.23-1 .23-.81-.02.23-.3 1-.76 1.69-1zm2.75-1.36c.46-.3.56-.26.25.07-.3.3-.88.76-1.33 1.05-.48.29-.68.32-.39.03.28-.3.96-.84 1.47-1.15zm1.88-1.46c.3-.31.29-.24-.01.11-.29.33-.76.81-1.08 1.1-.34.29-.4.3-.11 0 .32-.34.85-.89 1.2-1.21zm-21.39 2.85c.48.27 1.1.65 1.35.82.24.15.04.06-.4-.17-.43-.25-.97-.59-1.25-.78-.27-.2-.15-.16.3.13zm2.51 1.22c.61.22 1.29.51 1.46.63.17.1-.15.03-.7-.16-.53-.2-1.14-.48-1.37-.61-.24-.16 0-.11.61.14zm3.08.85c.73.12 1.38.3 1.47.4.06.07-.39.06-1.03-.04-.62-.12-1.23-.3-1.39-.4-.16-.11.26-.1.95.04zm3.48.32c.75-.02 1.31.05 1.27.15-.04.07-.62.15-1.27.16-.66-.01-1.23-.08-1.27-.15-.06-.11.52-.18 1.27-.16zm3.46-.32c.71-.14 1.13-.16.96-.04-.15.09-.77.27-1.39.39-.63.1-1.09.12-1.02.04.07-.09.74-.28 1.45-.39zm3.1-.86c.58-.24.83-.29.6-.13-.23.14-.83.41-1.37.61-.55.19-.88.26-.7.15.18-.12.85-.41 1.47-.63zm2.49-1.22c.45-.28.56-.33.3-.13-.26.18-.8.53-1.23.78-.46.24-.66.33-.41.18.26-.18.87-.55 1.34-.83zm-14.66 1.8c.56.18 1.13.36 1.27.41.15.04-.16-.04-.66-.18-.48-.16-.99-.35-1.18-.43-.18-.08.05.01.57.2zm2.68.69c.61.1 1.17.18 1.24.2.05.01-.35-.03-.9-.1-.53-.09-1.05-.2-1.16-.23-.13-.05.23.02.82.13zm2.93.25c.63-.01 1.1-.02 1.07 0-.03.01-.52.04-1.07.05-.57-.01-1.04-.04-1.09-.05-.03-.02.46-.01 1.09 0zm2.92-.25c.61-.12.97-.18.84-.14-.13.03-.65.15-1.18.24-.55.08-.95.12-.88.1.05-.02.61-.11 1.22-.2zm2.67-.7c.51-.19.76-.28.57-.2-.18.08-.7.27-1.18.43-.48.14-.79.22-.66.19.16-.05.73-.24 1.27-.42zM10.6 10.7h9.5L29.7 1l9.6 9.7h9.5v9.6l9.6 9.7-9.6 9.7v9.6h-9.5L29.7 59l-9.6-9.7h-9.5v-9.6L1 30l9.6-9.7v-9.6zM6.07 30L29.7 6.12 53.33 30 29.7 53.88 6.07 30zm74.63.97h4.38v18.35H80.7V30.97zm6.52 18.35V30.97h3.04l15.4 12.18V30.97h3.99v18.35h-3.05L91.25 36.97v12.35h-4.03zm30.12-7.38h8.32l-4.25-7.63-4.07 7.63zm-8.58 7.38h4.42l2.28-4.03h12.01l2.27 4.03h4.98l-10.95-18.35h-4.24l-10.77 18.35zm25.02 0V30.97h3.04l15.41 12.18V30.97h3.99v18.35h-3.05l-15.35-12.35v12.35h-4.04zm40.92-15.01h-11.92V45.8h11.92v-3.9l4.46.91v2.16c0 1.67-.33 2.81-.99 3.43-.65.61-1.92.91-3.78.91h-11.33c-1.84 0-3.08-.3-3.72-.91-.66-.61-.99-1.75-.99-3.43V35.3c0-1.67.33-2.81.99-3.43.64-.61 1.88-.91 3.72-.91h11.33c1.86 0 3.13.3 3.78.91.65.63.99 1.77.99 3.43v1.77l-4.46.65v-3.41zm6.59 15.01V30.97h19.47v3.25h-15v3.98h8.74v3.17h-8.74v4.51h15.23v3.43h-19.7v.01zm-37-38.62h4.78v7.72l10.5-7.72h5.25l-12.32 9.17 12.32 9.17h-5.25l-10.5-7.72v7.72h-4.78V10.7zm-10.51 10.62v7.72h-4.77v-7.72l-9.07-10.61h4.77l6.68 7.72 6.69-7.72h4.77l-9.07 10.61zM108.96 10.7v18.33h18.14v-2.89h-13.37V10.7h-4.77zm-13.37 4.83l3.82 7.72h-7.64l3.82-7.72zm6.68 13.5h4.78L97.98 10.7H93.2l-9.07 18.33h4.78l1.43-2.89h10.51l1.42 2.89zM59.3 10.7h4.77v7.72h13.37V10.7h4.78v18.33h-4.78v-7.72H64.08v7.72H59.3V10.7zm105.49-6.36H164v1.93l-1.67-1.93h-.71V7.5h.78V5.48l1.73 2.02h.66V4.34zm-4.86 1.98h-.96l.46-1.23.5 1.23zm-.06-1.98h-.9l-1.26 3.16h.83l.23-.63h1.4l.26.63h.84l-1.4-3.16zm-2.3 0h-3.04v.58h1.13V7.5h.78V4.92h1.13v-.58zm-3.49.21c-.4-.17-.71-.25-1.06-.25-.73 0-1.19.36-1.19.91 0 1.13 1.59.94 1.59 1.46 0 .18-.16.29-.46.29-.35 0-.62-.11-1.07-.4v.68c.31.16.58.31 1.13.31.7 0 1.2-.36 1.2-.96 0-1.1-1.59-.97-1.59-1.44 0-.16.18-.26.46-.26.27 0 .53.08.99.28v-.62zm-2.8-.21h-.78v1.27h-1.56V4.34h-.78V7.5h.78V6.22h1.56V7.5h.78V4.34zm-3.79 0h-.86l-.98 1.43h-.01V4.34h-.78V7.5h.78V6.02l1.24 1.48h.98l-1.38-1.68 1.01-1.48zm-4.31 1.98h-.96l.46-1.23.5 1.23zm-.06-1.98h-.9l-1.26 3.16h.82l.24-.63h1.4l.25.63h.84l-1.39-3.16zm-2.32 0h-2.92v.58h1.6l-1.72 2.58h3.03v-.58h-1.7l1.71-2.58zm-4.39 1.98h-.96l.46-1.23.5 1.23zm-.07-1.98h-.9l-1.26 3.16h.82l.24-.63h1.4l.25.63h.84l-1.39-3.16zm-2.49 0l-1.02 1.48 1.38 1.68h-.98L132 6.02V7.5h-.78V4.34h.78v1.43l.99-1.43h.86zm-4.57 0h-.85l-.99 1.43h-.01V4.34h-.78V7.5h.78V6.02l1.24 1.48h.98l-1.38-1.68 1.01-1.48zm-3.33 0h-.78v1.93l-1.66-1.93h-.72V7.5h.78V5.48l1.73 2.02h.66V4.34h-.01zm-4.85 1.98h-.96l.46-1.23.5 1.23zm-.06-1.98h-.9l-1.26 3.16h.83l.23-.63h1.4l.26.63h.84l-1.4-3.16zm-4.25 1.84h.55c.28 0 .48.12.48.36 0 .27-.15.39-.58.39h-.44v-.75h-.01zm0-1.26h.41c.28 0 .4.17.4.33 0 .17-.12.34-.4.34h-.41v-.67zm-.78-.58V7.5h1.52c.91 0 1.11-.56 1.11-.93s-.22-.69-.67-.81c.26-.13.43-.36.43-.63 0-.35-.3-.79-1.03-.79h-1.36zm-1.94 0h-.86l-.98 1.43h-.01V4.34h-.78V7.5h.78V6.02l1.24 1.48h.98l-1.38-1.68 1.01-1.48zm-4.98 3.16h.78V6.02l1.23-1.68h-.94l-.69.99-.68-.99h-.94l1.23 1.68V7.5h.01zm-1.33-.58h-1.6V4.34h-.78V7.5h2.38v-.58zm-4.07-.6h-.96l.46-1.23.5 1.23zm-.06-1.98h-.9l-1.26 3.16h.83l.23-.63h1.4l.26.63h.84l-1.4-3.16zm-2.52 0h-.78v1.27h-1.56V4.34h-.78V7.5h.78V6.22h1.56V7.5h.78V4.34zm-5.01 0h-2.15V7.5h.78V6.2h1.38v-.57h-1.38v-.7h1.38v-.59h-.01zm-3.52 1.58c0 .58-.4.96-.99.96-.6 0-.99-.39-.99-.96 0-.58.39-.96.99-.96s.99.38.99.96zm.81 0c0-.76-.61-1.62-1.79-1.62-1.18 0-1.79.86-1.79 1.62 0 .81.65 1.62 1.79 1.62 1.12.01 1.79-.81 1.79-1.62zM86.31 7.5h.78V6.02l1.23-1.68h-.94l-.68.99-.68-.99h-.95l1.23 1.68V7.5h.01zM83.1 4.92h.4c.29 0 .45.12.45.35 0 .27-.21.36-.43.36h-.41v-.71h-.01zm-.78-.58V7.5h.78V6.22h.23c.42 0 .55.6.88 1.28h.86c-.44-.93-.54-1.31-.86-1.48.36-.17.54-.43.54-.77 0-.48-.38-.91-1.02-.91h-1.41zm-1.69 1.98h-.96l.46-1.23.5 1.23zm-.06-1.98h-.91L78.41 7.5h.83l.23-.63h1.4l.25.63h.84l-1.39-3.16zm-2.55 0h-.78V7.5h.78V4.34zm-3.7.58h.5c.74 0 1.03.46 1.03 1 0 .46-.23 1-1.02 1h-.51v-2zm-.78-.58V7.5h1.29c1.25 0 1.81-.67 1.81-1.58 0-.87-.59-1.58-1.73-1.58h-1.37zm-.71 0h-.78V7.5h.78V4.34zm-1.48.21c-.39-.17-.71-.25-1.06-.25-.72 0-1.19.36-1.19.91 0 1.13 1.59.94 1.59 1.46 0 .18-.16.29-.46.29-.34 0-.62-.11-1.07-.4v.68c.31.16.58.31 1.13.31.7 0 1.2-.36 1.2-.96 0-1.1-1.59-.97-1.59-1.44 0-.16.18-.26.46-.26.27 0 .54.08.99.28v-.62zm-4.52 1.63h.55c.27 0 .47.12.47.36 0 .27-.15.39-.58.39h-.44v-.75zm0-1.26h.41c.28 0 .4.17.4.33 0 .17-.12.34-.4.34h-.41v-.67zm-.78-.58V7.5h1.52c.91 0 1.1-.56 1.1-.93s-.22-.69-.66-.81c.26-.13.43-.36.43-.63 0-.35-.3-.79-1.04-.79h-1.35zm-1.45 0V6.1c0 .56-.38.78-.8.78-.45 0-.77-.28-.77-.73V4.34h-.78v1.8c0 .98.65 1.41 1.56 1.41.86 0 1.56-.36 1.56-1.41v-1.8h-.77zm-2.98.21c-.4-.17-.72-.25-1.06-.25-.72 0-1.19.36-1.19.91 0 1.13 1.59.94 1.59 1.46 0 .18-.16.29-.46.29-.34 0-.62-.11-1.07-.4v.68c.31.16.58.31 1.13.31.7 0 1.2-.36 1.2-.96 0-1.1-1.59-.97-1.59-1.44 0-.16.18-.26.46-.26.26 0 .54.08.99.28v-.62zm-1.73 48.36h2.26v2.6h.29v1.21h-.55v-.68h-2.05v.68h-.55v-1.21h.28c.14-.27.23-.58.27-.93.04-.35.06-.8.06-1.34v-.33h-.01zm.63.53c0 .95-.09 1.64-.27 2.07h1.24v-2.07h-.97zm2.23 1.05c0-.32.05-.59.15-.8.07-.16.18-.3.3-.43.13-.13.27-.22.42-.28.2-.08.44-.12.71-.12.48 0 .87.14 1.16.43.29.29.43.69.43 1.2s-.14.9-.43 1.19c-.29.29-.67.43-1.15.43-.49 0-.87-.14-1.16-.43-.29-.3-.43-.69-.43-1.19zm.68-.02c0 .35.09.62.26.81.17.18.39.27.65.27s.48-.09.65-.27c.17-.18.25-.45.25-.82 0-.36-.08-.63-.25-.8-.16-.18-.38-.27-.66-.27-.27 0-.49.09-.66.27-.16.18-.24.45-.24.81zm2.95-1.56h.66v.75c0 .24.01.4.03.48.02.08.07.15.17.21.09.06.23.09.41.09.14 0 .27-.01.38-.04.11-.03.2-.07.28-.13v-1.35h.66v3.13h-.66v-1.26c-.13.06-.27.1-.4.13s-.26.04-.38.04c-.33 0-.6-.07-.82-.22-.22-.15-.33-.4-.33-.76v-1.07zm3.27 3.13v-3.13h2.42v.53h-1.76v.7h1.64v.53h-1.64v.85h1.82v.53h-2.48v-.01zm3.05 0v-3.13h1.06c.4 0 .66.02.78.05.19.05.34.15.47.31.13.16.19.36.19.61 0 .19-.04.35-.11.48s-.17.23-.28.31c-.11.07-.23.12-.34.15-.16.03-.39.05-.68.05h-.43v1.18h-.66v-.01zm.66-2.6v.89h.36c.26 0 .43-.02.52-.05.09-.03.16-.08.21-.15.05-.07.07-.15.07-.24 0-.11-.03-.21-.1-.28a.502.502 0 0 0-.27-.14c-.08-.01-.24-.02-.47-.02h-.32v-.01zm2.38 2.6v-3.13h.66v1.23h1.29v-1.23h.66v3.13h-.65v-1.37h-1.29v1.37h-.67zm5.26 0v-1.31h-.13c-.21 0-.36.03-.44.09-.09.06-.23.24-.44.53l-.47.68h-.79l.4-.61c.16-.24.28-.41.38-.51.09-.1.21-.19.35-.26-.3-.05-.52-.15-.66-.3a.873.873 0 0 1-.2-.56c0-.19.05-.36.15-.51.1-.15.23-.25.4-.3.16-.05.41-.08.74-.08h1.39v3.13H81v.01zm0-2.6h-.52c-.26 0-.43.01-.52.02-.08.01-.15.05-.21.12-.06.07-.09.15-.09.26 0 .11.03.2.09.26s.13.11.22.12c.09.02.27.02.54.02H81v-.8zm3.29 2.6v-1.31h-.13c-.21 0-.36.03-.44.09-.09.06-.23.24-.44.53l-.47.68h-.79l.4-.61c.16-.24.28-.41.38-.51.09-.1.21-.19.35-.26-.3-.05-.52-.15-.66-.3a.873.873 0 0 1-.2-.56c0-.19.05-.36.15-.51.1-.15.23-.25.4-.3.16-.05.41-.08.74-.08h1.39v3.13h-.68v.01zm0-2.6h-.52c-.26 0-.43.01-.52.02-.08.01-.15.05-.21.12-.06.07-.09.15-.09.26 0 .11.03.2.09.26s.13.11.22.12c.09.02.27.02.54.02h.49v-.8zm2.46 1.05c0-.32.05-.59.15-.8.07-.16.18-.3.3-.43.13-.13.27-.22.42-.28.2-.08.44-.12.71-.12.48 0 .87.14 1.16.43.29.29.43.69.43 1.2s-.14.9-.43 1.19c-.29.29-.67.43-1.15.43-.49 0-.87-.14-1.16-.43-.29-.3-.43-.69-.43-1.19zm.68-.02c0 .35.09.62.26.81.17.18.39.27.65.27s.48-.09.65-.27c.17-.18.25-.45.25-.82 0-.36-.08-.63-.25-.8-.16-.18-.38-.27-.66-.27-.27 0-.49.09-.66.27-.16.18-.24.45-.24.81zm3.01 1.57v-3.13h1.06c.4 0 .66.02.78.05.19.05.34.15.47.31.13.16.19.36.19.61 0 .19-.04.35-.11.48s-.17.23-.28.31c-.11.07-.23.12-.34.15-.16.03-.39.05-.68.05h-.43v1.18h-.66v-.01zm.66-2.6v.89h.36c.26 0 .43-.02.52-.05.09-.03.16-.08.21-.15.05-.07.07-.15.07-.24 0-.11-.04-.21-.1-.28a.502.502 0 0 0-.27-.14c-.08-.01-.24-.02-.47-.02h-.32v-.01zm2.42-.53h2.22v.53h-1.55v2.6h-.66v-3.13h-.01zm5.22 3.13l-1.31-3.13h-.7l-1.27 3.13h.7l.27-.71h1.31l.28.71h.72zm-1.21-1.24h-.9l.44-1.16.46 1.16zm1.56 1.24v-3.13h.66v1.23h1.29v-1.23h.66v3.13h-.66v-1.37h-1.29v1.37h-.66zm3.31-3.13h.62v2.08l1.33-2.08h.65v3.13h-.62v-2.05l-1.33 2.05h-.66v-3.13h.01zm3.74.85l-.64-.14c.14-.51.53-.77 1.18-.77.38 0 .67.08.87.24.2.16.29.35.29.57 0 .15-.05.28-.13.41-.09.12-.22.23-.4.32.22.07.38.17.49.3.11.13.16.29.16.48 0 .28-.11.5-.32.67-.21.17-.53.25-.95.25-.34 0-.61-.05-.81-.16-.2-.11-.35-.31-.45-.61l.6-.19c.06.19.15.31.25.37s.23.08.38.08c.21 0 .36-.04.46-.13.1-.09.14-.19.14-.3 0-.13-.05-.23-.16-.31-.11-.08-.27-.12-.49-.12h-.15v-.47h.08c.2 0 .36-.04.46-.13.11-.09.16-.2.16-.35 0-.11-.04-.21-.13-.29a.531.531 0 0 0-.37-.12c-.26.01-.44.14-.52.4zm5.35 2.28h-.71l-.28-.71h-1.31l-.27.71h-.7l1.27-3.13h.7l1.3 3.13zm-1.21-1.24l-.45-1.16-.44 1.16h.89zm1.57-1.89h.66v2.6h1.27v-2.6h.66v2.6h.27v1.21h-.55v-.68h-2.32v-3.13h.01zm3.34 0h.62v2.08l1.33-2.08h.66v3.13h-.62v-2.05l-1.33 2.05h-.66v-3.13zm5.23 3.13v-1.31h-.13c-.21 0-.36.03-.44.09-.09.06-.23.24-.44.53l-.47.68h-.79l.4-.61c.16-.24.28-.41.38-.51.09-.1.21-.19.35-.26-.3-.05-.52-.15-.66-.3a.873.873 0 0 1-.2-.56c0-.19.05-.36.15-.51.1-.15.23-.25.4-.3.16-.05.41-.08.74-.08h1.39v3.13h-.68v.01zm0-2.6h-.52c-.26 0-.43.01-.52.02-.08.01-.15.05-.21.12-.06.07-.09.15-.09.26 0 .11.03.2.09.26s.13.11.22.12c.09.02.27.02.54.02h.49v-.8zm2.6 2.6v-3.13h.66v1.23h1.29v-1.23h.66v3.13h-.66v-1.37h-1.29v1.37h-.66zm6.24 0h-.71l-.28-.71h-1.31l-.27.71h-.7l1.27-3.13h.7l1.3 3.13zm-1.21-1.24l-.45-1.16-.44 1.16h.89zm1.57 1.24v-3.13h1.06c.4 0 .66.02.78.05.19.05.34.15.47.31.13.16.19.36.19.61 0 .19-.04.35-.11.48s-.17.23-.28.31c-.11.07-.23.12-.34.15-.16.03-.39.05-.68.05h-.43v1.18h-.66v-.01zm.66-2.6v.89h.36c.26 0 .43-.02.52-.05.09-.03.16-.08.21-.15.05-.07.07-.15.07-.24 0-.11-.03-.21-.1-.28a.51.51 0 0 0-.26-.14c-.08-.01-.24-.02-.47-.02h-.33v-.01zm2.19 1.05c0-.32.05-.59.15-.8.07-.16.18-.3.3-.43.13-.13.27-.22.42-.28.2-.08.44-.12.71-.12.48 0 .87.14 1.16.43.29.29.43.69.43 1.2s-.14.9-.43 1.19c-.29.29-.67.43-1.15.43-.49 0-.87-.14-1.16-.43-.29-.3-.43-.69-.43-1.19zm.68-.02c0 .35.09.62.26.81.17.18.39.27.65.27s.48-.09.65-.27c.17-.18.25-.45.25-.82 0-.36-.08-.63-.25-.8-.16-.18-.38-.27-.66-.27-.27 0-.49.09-.66.27-.16.18-.24.45-.24.81zm3.21-1.56h2.26v2.6h.29v1.21h-.55v-.68h-2.05v.68h-.55v-1.21h.28c.14-.27.23-.58.27-.93.04-.35.06-.8.06-1.34v-.33h-.01zm.64.53c0 .95-.09 1.64-.27 2.07h1.24v-2.07H137zm2.36 2.6v-3.13h.66v1.23h1.29v-1.23h.66v3.13h-.66v-1.37h-1.29v1.37h-.66zm3.16-1.55c0-.32.05-.59.15-.8.07-.16.18-.3.3-.43.13-.13.27-.22.42-.28.2-.08.44-.12.71-.12.48 0 .87.14 1.16.43.29.29.43.69.43 1.2s-.14.9-.43 1.19c-.29.29-.67.43-1.15.43-.49 0-.87-.14-1.16-.43-.29-.3-.43-.69-.43-1.19zm.68-.02c0 .35.09.62.26.81.17.18.39.27.65.27s.48-.09.65-.27c.17-.18.25-.45.25-.82 0-.36-.08-.63-.25-.8-.16-.18-.38-.27-.66-.27-.27 0-.49.09-.66.27-.16.18-.24.45-.24.81zm3.04-1.56h2.22v.53h-1.55v2.6h-.66v-3.13h-.01zm2.36 1.58c0-.32.05-.59.15-.8.07-.16.18-.3.3-.43.13-.13.27-.22.42-.28.2-.08.44-.12.71-.12.48 0 .87.14 1.16.43.29.29.43.69.43 1.2s-.14.9-.43 1.19c-.29.29-.67.43-1.15.43-.49 0-.87-.14-1.16-.43-.28-.3-.43-.69-.43-1.19zm.68-.02c0 .35.09.62.26.81.17.18.39.27.65.27s.48-.09.65-.27c.17-.18.25-.45.25-.82 0-.36-.08-.63-.25-.8-.16-.18-.38-.27-.66-.27-.27 0-.49.09-.66.27-.15.18-.24.45-.24.81zm4.3-1.56h2.44v.53h-1.78v.73h.88c.24 0 .45.03.61.09.16.06.3.16.41.32.11.15.17.33.17.54 0 .21-.06.39-.17.54-.11.15-.24.25-.39.31-.15.06-.36.08-.63.08h-1.54v-3.14zm.66 2.6h.64c.2 0 .35-.01.43-.03.08-.02.16-.06.22-.13s.09-.15.09-.25c0-.14-.05-.25-.16-.31s-.29-.1-.55-.1h-.67v.82zm5.38.53h-.71l-.28-.71h-1.31l-.27.71h-.7l1.27-3.13h.7l1.3 3.13zm-1.21-1.24l-.45-1.16-.44 1.16h.89zm1.57 1.24v-3.13h.66v1.23h1.29v-1.23h.66v3.13h-.66v-1.37h-1.29v1.37h-.66zm3.31-3.13h.66v1.33c.15-.01.25-.05.3-.11.05-.06.13-.22.24-.49.14-.34.27-.55.41-.63.14-.08.36-.12.66-.12h.1v.47h-.09a.74.74 0 0 0-.3.05.36.36 0 0 0-.15.15c-.04.07-.1.2-.17.4-.04.11-.08.2-.13.27s-.13.14-.25.21c.15.04.27.12.36.24.1.12.2.29.32.51l.45.86h-.78l-.39-.81a.322.322 0 0 1-.04-.07.744.744 0 0 1-.08-.15c-.08-.15-.15-.25-.21-.29-.05-.04-.14-.06-.25-.06v1.37h-.66v-3.13zm5.72 3.13h-.71l-.28-.71h-1.31l-.27.71h-.7l1.27-3.13h.7l1.3 3.13zm-1.21-1.24l-.45-1.16-.44 1.16h.89zm2.84-1.89h.66v1.33c.15-.01.25-.05.3-.11.05-.06.13-.22.24-.49.14-.34.27-.55.41-.63.14-.08.36-.12.66-.12h.1v.47h-.09a.74.74 0 0 0-.3.05.36.36 0 0 0-.15.15c-.04.07-.1.2-.17.4-.04.11-.08.2-.13.27s-.13.14-.25.21c.15.04.27.12.36.24.1.12.2.29.32.51l.45.86h-.78l-.39-.81a.322.322 0 0 1-.04-.07c-.01-.01-.03-.06-.08-.15-.08-.15-.15-.25-.21-.29-.05-.04-.14-.06-.25-.06v1.37h-.66v-3.13zm5.73 3.13h-.71l-.28-.71h-1.31l-.27.71h-.7l1.27-3.13h.7l1.3 3.13zm-1.21-1.24l-.45-1.16-.44 1.16h.89zm2.03-1.04l-.64-.14c.14-.51.53-.77 1.18-.77.38 0 .67.08.87.24.2.16.29.35.29.57 0 .15-.05.28-.13.41-.09.12-.22.23-.4.32.22.07.38.17.49.3.11.13.16.29.16.48 0 .28-.11.5-.32.67-.21.17-.53.25-.95.25-.34 0-.61-.05-.81-.16-.2-.11-.35-.31-.45-.61l.6-.19c.06.19.15.31.25.37s.23.08.38.08c.21 0 .36-.04.46-.13.1-.09.14-.19.14-.3 0-.13-.05-.23-.16-.31-.11-.08-.27-.12-.49-.12h-.15v-.47h.08c.2 0 .36-.04.46-.13.11-.09.16-.2.16-.35 0-.11-.04-.21-.13-.29a.531.531 0 0 0-.37-.12c-.27.01-.44.14-.52.4zm5.35 2.28h-.71l-.28-.71h-1.31l-.27.71h-.7l1.27-3.13h.7l1.3 3.13zm-1.22-1.24l-.45-1.16-.44 1.16h.89zm1.24 1.24l1.13-1.63-1.02-1.5h.77l.64.93.64-.93h.77l-1.03 1.5 1.13 1.63h-.79l-.72-1.06-.73 1.06h-.79zm5.29-1.16l.64.19c-.1.34-.26.6-.49.77-.23.17-.52.25-.87.25-.43 0-.79-.14-1.07-.43-.28-.28-.42-.67-.42-1.17 0-.52.14-.93.42-1.21.28-.29.65-.43 1.11-.43.4 0 .73.11.98.34.15.13.26.33.34.58l-.65.15a.66.66 0 0 0-.24-.38.731.731 0 0 0-.45-.14.75.75 0 0 0-.59.25c-.15.17-.23.44-.23.81 0 .4.07.68.22.84.15.17.34.25.58.25.18 0 .33-.05.45-.16.13-.11.22-.28.27-.51zm1.83 1.16v-2.6h-.97v-.53h2.6v.53h-.96v2.6h-.67zm4.72 0l-1.31-3.13h-.7l-1.27 3.13h.7l.27-.71h1.31l.28.71h.72zm-1.21-1.24h-.9l.44-1.16.46 1.16zm1.56 1.24v-3.13h.66v1.23h1.29v-1.23h.66v3.13h-.66v-1.37h-1.29v1.37h-.66zm6.25 0h-.71l-.29-.71h-1.31l-.27.71h-.7l1.27-3.13h.7l1.31 3.13zm-1.21-1.24l-.45-1.16-.44 1.16h.89z" clip-rule="evenodd" fill="url(#a)" fill-rule="evenodd"/></svg>