<?xml version="1.0" encoding="UTF-8" standalone="no"?>
<svg
   xmlns:dc="http://purl.org/dc/elements/1.1/"
   xmlns:cc="http://creativecommons.org/ns#"
   xmlns:rdf="http://www.w3.org/1999/02/22-rdf-syntax-ns#"
   xmlns:svg="http://www.w3.org/2000/svg"
   xmlns="http://www.w3.org/2000/svg"
   xmlns:sodipodi="http://sodipodi.sourceforge.net/DTD/sodipodi-0.dtd"
   xmlns:inkscape="http://www.inkscape.org/namespaces/inkscape"
   version="1.1"
   id="svg2"
   xml:space="preserve"
   width="311.49332"
   height="171.37334"
   viewBox="0 0 311.49332 171.37334"
   sodipodi:docname="M2out202_136c.eps"><metadata
     id="metadata8"><rdf:RDF><cc:Work
         rdf:about=""><dc:format>image/svg+xml</dc:format><dc:type
           rdf:resource="http://purl.org/dc/dcmitype/StillImage" /></cc:Work></rdf:RDF></metadata><defs
     id="defs6" /><sodipodi:namedview
     pagecolor="#ffffff"
     bordercolor="#666666"
     borderopacity="1"
     objecttolerance="10"
     gridtolerance="10"
     guidetolerance="10"
     inkscape:pageopacity="0"
     inkscape:pageshadow="2"
     inkscape:window-width="640"
     inkscape:window-height="480"
     id="namedview4" /><g
     id="g10"
     inkscape:groupmode="layer"
     inkscape:label="ink_ext_XXXXXX"
     transform="matrix(1.3333333,0,0,-1.3333333,0,171.37333)"><g
       id="g12"
       transform="scale(0.1)"><path
         d="m 2277.62,88.8281 c 2.46,-0.7187 4.36,-1.957 5.74,-3.707 1.37,-1.7617 2.05,-3.8594 2.05,-6.3008 0,-2.289 -0.59,-4.3594 -1.81,-6.2109 -1.17,-1.8711 -2.97,-3.2578 -5.37,-4.1797 -2.38,-0.9102 -4.93,-1.3711 -7.58,-1.3711 h -10.6 v 22.8398 h 10.6 c 2.15,0 4.47,-0.3593 6.97,-1.0703 z m -8.46,-33.0976 c 4.11,0 7.22,-0.5586 9.38,-1.6719 2.12,-1.1289 3.66,-2.6484 4.57,-4.5703 0.94,-1.9375 1.53,-5.0274 1.8,-9.3672 0.33,-6.0625 0.73,-9.6914 1.26,-10.8398 h 15.26 c -0.61,1.9882 -0.99,5.1406 -1.1,9.457 -0.1,4.3125 -0.35,7.3906 -0.75,9.2109 -0.62,2.8399 -1.56,5.211 -2.86,7.1524 -1.33,1.8984 -2.97,3.4375 -4.98,4.5195 -1.99,1.1094 -4.63,2 -7.92,2.6797 3.72,0.4609 6.37,1.0586 7.92,1.8398 2.9,1.4375 5.22,3.5586 6.97,6.3282 1.76,2.7929 2.63,5.9804 2.63,9.6093 0,3.711 -0.83,6.961 -2.46,9.75 -1.64,2.793 -3.76,5 -6.34,6.7227 -2.59,1.6875 -5.91,2.918 -9.97,3.6872 -2.89,0.524 -7.15,0.762 -12.78,0.762 h -25.76 V 29.2813 h 16.02 v 26.4492 z m 61.29,36.1914 c -2.95,6.6172 -7.14,12.7261 -12.58,18.3401 -5.46,5.629 -12.19,10.297 -20.16,14 -7.98,3.75 -16.78,5.609 -26.41,5.609 -9.89,0 -19.3,-2.152 -28.17,-6.43 -6.47,-3.101 -12.44,-7.363 -17.95,-12.75 -5.44,-5.402 -9.94,-12.0699 -13.42,-20.0191 -3.51,-7.961 -5.26,-16.5313 -5.26,-25.6914 0,-11.3399 2.87,-22.1602 8.58,-32.4414 5.75,-10.2383 13.73,-18.2305 23.95,-23.94926 C 2249.26,2.85156 2260.02,0 2271.3,0 c 10.03,0 19.46,2.14844 28.37,6.48828 6.83,3.33203 13.08,7.89062 18.71,13.69142 5.66,5.7695 10.03,12.6406 13.17,20.5586 3.09,7.9101 4.66,16 4.66,24.2422 0,9.2187 -1.92,18.2109 -5.76,26.9414 z m -38.71,24.2691 c 6.7,-2.671 12.46,-6.421 17.36,-11.242 4.88,-4.801 8.73,-10.0779 11.51,-15.8787 3.67,-7.5312 5.5,-15.5898 5.5,-24.0898 0,-9.6797 -2.45,-18.9024 -7.3,-27.6016 -4.87,-8.75 -11.62,-15.5391 -20.28,-20.4101 -8.64,-4.879 -17.71,-7.29692 -27.23,-7.29692 -9.44,0 -18.5,2.41792 -27.13,7.29692 -8.66,4.871 -15.44,11.6601 -20.28,20.4101 -4.89,8.6992 -7.31,17.9219 -7.31,27.6016 0,8.2304 1.57,15.7304 4.73,22.4687 3.13,6.75 7.07,12.461 11.84,17.0898 4.76,4.641 9.95,8.231 15.56,10.723 7.38,3.308 14.93,4.937 22.59,4.937 6.95,0 13.77,-1.34 20.44,-4.008"
         style="fill:#960a2c;fill-opacity:1;fill-rule:nonzero;stroke:none"
         id="path14" /><path
         d="m 2024.96,327.957 -378.62,629.402 h 104.29 V 1285.32 H 1120.4 V 957.359 h 104.3 L 1080,716.91 935.371,957.359 H 1039.65 V 1285.32 H 409.426 V 957.359 H 513.691 L 135.07,327.957 H 0 V 0 H 642.773 V 327.957 H 527.305 L 724.551,655.848 801.016,528.699 H 727.688 V 200.738 h 704.652 v 327.961 h -73.3 l 76.47,127.149 197.22,-327.891 H 1517.27 V 0 h 642.72 v 327.957 h -135.03"
         style="fill:#960a2c;fill-opacity:1;fill-rule:nonzero;stroke:none"
         id="path16" /><path
         d="m 1708.57,1243.33 c 0,-54.54 0,-189.44 0,-243.908 -29.96,0 -136.6,0 -136.6,0 l 429.25,-713.516 c 0,0 76.91,0 116.79,0 0,-54.476 0,-189.3669 0,-243.8474 -68.34,0 -490.44,0 -558.7,0 0,54.4805 0,189.3714 0,243.8474 33.96,0 147.78,0 147.78,0 L 1435.51,737.391 1284.67,486.656 c 0,0 90.32,0 105.63,0 0,-54.461 0,-189.355 0,-243.855 -69.62,0 -550.945,0 -620.62,0 0,54.5 0,189.394 0,243.855 15.32,0 105.703,0 105.703,0 L 724.551,737.391 452.941,285.906 c 0,0 113.778,0 147.793,0 0,-54.476 0,-189.3669 0,-243.8474 -68.273,0 -490.343,0 -558.6715,0 0,54.4805 0,189.3714 0,243.8474 39.8711,0 116.7465,0 116.7465,0 l 429.257,713.516 c 0,0 -106.621,0 -136.582,0 0,54.468 0,189.368 0,243.908 67.961,0 478.137,0 546.125,0 0,-54.54 0,-189.44 0,-243.908 -29.933,0 -136.601,0 -136.601,0 L 1080,635.387 1299.05,999.422 c 0,0 -106.68,0 -136.59,0 0,54.468 0,189.368 0,243.908 67.96,0 478.09,0 546.11,0"
         style="fill:#fab93d;fill-opacity:1;fill-rule:nonzero;stroke:none"
         id="path18" /><path
         d="m 1666.53,1201.29 c 0,-45.6 0,-114.23 0,-159.83 -40.28,0 -168.91,0 -168.91,0 l 479.83,-797.601 c 0,0 64.07,0 98.52,0 0,-45.597 0,-114.168 0,-159.7574 -66.06,0 -408.58,0 -474.62,0 0,45.5894 0,114.1604 0,159.7574 43.04,0 180.09,0 180.09,0 L 1435.52,818.941 1210.33,444.617 c 0,0 107.46,0 137.93,0 0,-45.586 0,-114.179 0,-159.777 -67.75,0 -468.776,0 -536.541,0 0,45.598 0,114.191 0,159.777 30.5,0 138.019,0 138.019,0 L 724.543,818.938 378.594,243.859 c 0,0 137.051,0 180.097,0 0,-45.597 0,-114.168 0,-159.7574 -66.054,0 -408.543,0 -474.5894,0 0,45.5894 0,114.1604 0,159.7574 34.4254,0 98.4764,0 98.4764,0 l 479.836,797.601 c 0,0 -128.605,0 -168.887,0 0,45.6 0,114.23 0,159.83 65.653,0 396.387,0 462.039,0 0,-45.6 0,-114.23 0,-159.83 -40.293,0 -168.906,0 -168.906,0 l 293.33,-487.616 293.43,487.616 c 0,0 -128.62,0 -168.92,0 0,45.6 0,114.23 0,159.83 65.65,0 396.38,0 462.03,0"
         style="fill:#960a2c;fill-opacity:1;fill-rule:nonzero;stroke:none"
         id="path20" /></g></g></svg>
